<svg version="1.0" xmlns="http://www.w3.org/2000/svg"
 width="548.000000pt" height="548.000000pt" viewBox="-20 -20 588.000000 548.000000"
 preserveAspectRatio="xMidYMid meet">
    <g transform="translate(0.000000,548.000000) scale(0.100000,-0.100000)"
    fill="#000000" stroke="none">
        <path d="M2514 4889 c-92 -17 -253 -116 -354 -219 -119 -120 -183 -237 -198
        -362 -9 -71 0 -339 13 -410 4 -22 3 -38 -4 -43 -17 -10 -41 -73 -41 -107 0
        -62 42 -234 66 -271 14 -21 29 -59 34 -85 52 -267 266 -566 484 -676 115 -58
        219 -70 341 -42 257 61 528 364 606 679 11 42 31 93 44 113 36 52 57 137 63
        246 4 77 1 102 -11 121 -13 21 -14 30 -1 83 20 84 29 285 15 369 -30 192 -158
        360 -342 450 -97 47 -366 133 -486 155 -66 11 -162 11 -229 -1z"/>
        <path d="M2169 2787 c-53 -48 -186 -121 -309 -168 -47 -17 -118 -45 -158 -61
        -41 -15 -78 -28 -84 -28 -16 0 -140 -64 -190 -98 -58 -40 -91 -79 -131 -156
        -119 -231 -193 -558 -237 -1046 -18 -195 7 -288 89 -329 133 -68 470 -163 781
        -220 337 -61 563 -85 815 -84 200 0 260 4 465 31 412 55 731 126 998 222 162
        58 184 77 209 178 29 122 -32 622 -113 922 -48 180 -130 367 -187 429 -41 44
        -220 151 -254 151 -7 0 -140 55 -218 90 -11 5 -45 16 -75 26 -79 24 -219 100
        -260 140 -40 38 -54 43 -46 17 3 -10 10 -67 17 -128 6 -60 21 -186 34 -280
        l23 -170 -23 -60 c-13 -33 -43 -109 -66 -170 -23 -60 -54 -141 -69 -180 -15
        -38 -56 -142 -90 -230 -34 -88 -75 -194 -92 -235 -16 -41 -38 -97 -48 -125
        -18 -48 -47 -121 -112 -285 -16 -41 -39 -101 -50 -132 -11 -32 -23 -58 -27
        -58 -8 0 -37 68 -70 160 -11 30 -47 127 -81 215 -34 88 -72 189 -85 225 -22
        63 -57 157 -108 290 -61 163 -133 354 -168 447 l-37 103 5 320 c4 176 4 320 2
        320 -2 -1 -25 -20 -50 -43z"/>
        <path d="M2530 2562 c14 -27 155 -241 196 -301 43 -63 29 -71 123 74 32 50 81
        125 109 168 28 42 50 77 48 77 -2 0 -29 -10 -62 -22 -85 -31 -283 -32 -366 -1
        -51 19 -57 19 -48 5z"/>
        <path d="M2670 2134 c-47 -31 -88 -60 -92 -63 -4 -4 6 -85 22 -181 16 -96 41
        -245 55 -330 14 -85 35 -207 46 -270 10 -63 26 -164 35 -224 23 -160 27 -163
        48 -34 10 62 28 176 41 253 13 77 40 239 60 360 19 121 43 267 53 324 10 65
        13 106 7 108 -6 2 -48 28 -93 58 -46 30 -87 55 -90 55 -4 0 -45 -25 -92 -56z"/>
    </g>
</svg>
