<svg version="1.0" xmlns="http://www.w3.org/2000/svg"
 width="100.000000pt" height="100.000000pt" viewBox="0 0 100.000000 100.000000"
 preserveAspectRatio="xMidYMid meet">
    <g transform="translate(0.000000,100.000000) scale(0.100000,-0.100000)"
    fill="#fff" stroke="none">
        <path d="M359 981 c-173 -55 -310 -201 -348 -371 -6 -25 -9 -85 -7 -135 5
        -139 50 -238 153 -336 202 -193 508 -186 701 15 96 100 142 212 142 346 0 224
        -149 419 -369 484 -72 21 -201 20 -272 -3z m261 -73 c64 -19 150 -70 191 -115
        22 -24 55 -74 72 -111 30 -63 32 -74 32 -182 0 -104 -3 -121 -27 -172 l-26
        -57 -52 20 c-29 11 -75 31 -102 45 l-50 25 -25 -23 c-49 -46 -102 -138 -114
        -199 -11 -55 -14 -59 -39 -59 -26 0 -27 3 -32 58 -6 60 -38 134 -80 185 l-23
        28 -80 -36 c-44 -20 -88 -41 -98 -47 -22 -11 -19 -15 -50 47 -32 65 -40 102
        -39 195 1 85 24 159 73 234 95 144 298 214 469 164z"/>
        <path d="M430 832 c-55 -24 -79 -59 -92 -129 -20 -111 -16 -142 25 -209 20
        -34 37 -71 37 -82 0 -60 136 -87 185 -37 14 13 25 31 25 41 0 9 17 43 37 77
        41 65 44 94 26 207 -11 69 -28 97 -75 121 -37 19 -135 25 -168 11z"/>
    </g>
</svg>
